<svg width="20" height="20" viewBox="0 0 20 20" fill="none" xmlns="http://www.w3.org/2000/svg">
<g clip-path="url(#clip0_1_132)">
<path d="M1.66667 3.33334C1.66667 2.41287 2.41286 1.66668 3.33334 1.66668H6.66667C7.58715 1.66668 8.33334 2.41287 8.33334 3.33334V6.66668C8.33334 7.58715 7.58715 8.33334 6.66667 8.33334H3.33334C2.41286 8.33334 1.66667 7.58715 1.66667 6.66668V3.33334Z" stroke="#6D7194" stroke-width="1.5" stroke-linecap="round"/>
<path d="M11.6667 13.3333C11.6667 12.4129 12.4129 11.6667 13.3333 11.6667H16.6667C17.5871 11.6667 18.3333 12.4129 18.3333 13.3333V16.6667C18.3333 17.5872 17.5871 18.3333 16.6667 18.3333H13.3333C12.4129 18.3333 11.6667 17.5872 11.6667 16.6667V13.3333Z" stroke="#6D7194" stroke-width="1.5" stroke-linecap="round"/>
<path d="M8.33334 15C8.33334 16.841 6.84095 18.3333 5.00001 18.3333C3.15906 18.3333 1.66667 16.841 1.66667 15C1.66667 13.1591 3.15906 11.6667 5.00001 11.6667C6.84095 11.6667 8.33334 13.1591 8.33334 15Z" stroke="#6D7194" stroke-width="1.5" stroke-linecap="round"/>
<path d="M18.5 5C18.5 6.84095 16.841 8.33334 15 8.33334C13.1591 8.33334 11.6667 6.84095 11.6667 5C11.6667 3.15906 13.3258 1.66667 15.1667 1.66667C17.0077 1.66667 18.5 3.15906 18.5 5Z" stroke="#6D7194" stroke-width="1.5" stroke-linecap="round"/>
</g>
<defs>
<clipPath id="clip0_1_132">
<rect width="20" height="20" fill="white"/>
</clipPath>
</defs>
</svg>
