<svg width="20" height="20" viewBox="0 0 20 20" fill="none" xmlns="http://www.w3.org/2000/svg">
<path d="M11.1719 15.4688H4.53125C4.11685 15.4688 3.71942 15.3041 3.4264 15.0111C3.13337 14.7181 2.96875 14.3207 2.96875 13.9062V5.3125C2.96875 4.8981 3.13337 4.50067 3.4264 4.20765C3.71942 3.91462 4.11685 3.75 4.53125 3.75H7.65625L10 6.09375H15.4688C15.8832 6.09375 16.2806 6.25837 16.5736 6.5514C16.8666 6.84442 17.0312 7.24185 17.0312 7.65625V8.82812" stroke="#6D7194" stroke-width="1.5" stroke-linecap="round" stroke-linejoin="round"/>
<path d="M17.0312 12.3438H15.0781C14.7673 12.3438 14.4693 12.4672 14.2495 12.687C14.0297 12.9068 13.9062 13.2048 13.9062 13.5156C13.9062 13.8264 14.0297 14.1245 14.2495 14.3443C14.4693 14.564 14.7673 14.6875 15.0781 14.6875H15.8594C16.1702 14.6875 16.4682 14.811 16.688 15.0307C16.9078 15.2505 17.0312 15.5486 17.0312 15.8594C17.0312 16.1702 16.9078 16.4682 16.688 16.688C16.4682 16.9078 16.1702 17.0312 15.8594 17.0312H13.9062" stroke="#6D7194" stroke-width="1.5" stroke-linecap="round" stroke-linejoin="round"/>
<path d="M15.4688 17.0312V17.8125M15.4688 11.5625V12.3438" stroke="#6D7194" stroke-width="1.5" stroke-linecap="round" stroke-linejoin="round"/>
</svg>
