<svg width="20" height="20" viewBox="0 0 20 20" fill="none" xmlns="http://www.w3.org/2000/svg">
<path d="M3.33333 4.99999C3.33333 4.55797 3.50893 4.13404 3.82149 3.82148C4.13405 3.50892 4.55797 3.33333 5 3.33333H15C15.442 3.33333 15.8659 3.50892 16.1785 3.82148C16.4911 4.13404 16.6667 4.55797 16.6667 4.99999V6.66666C16.6667 7.10869 16.4911 7.53261 16.1785 7.84517C15.8659 8.15773 15.442 8.33333 15 8.33333H5C4.55797 8.33333 4.13405 8.15773 3.82149 7.84517C3.50893 7.53261 3.33333 7.10869 3.33333 6.66666V4.99999ZM3.33333 13.3333C3.33333 12.8913 3.50893 12.4674 3.82149 12.1548C4.13405 11.8423 4.55797 11.6667 5 11.6667H15C15.442 11.6667 15.8659 11.8423 16.1785 12.1548C16.4911 12.4674 16.6667 12.8913 16.6667 13.3333V15C16.6667 15.442 16.4911 15.8659 16.1785 16.1785C15.8659 16.4911 15.442 16.6667 15 16.6667H5C4.55797 16.6667 4.13405 16.4911 3.82149 16.1785C3.50893 15.8659 3.33333 15.442 3.33333 15V13.3333Z" stroke="#652995" stroke-width="1.5" stroke-linecap="round" stroke-linejoin="round"/>
</svg>
