<svg width="20" height="20" viewBox="0 0 20 20" fill="none" xmlns="http://www.w3.org/2000/svg">
<g clip-path="url(#clip0_1_183)">
<path d="M10.4113 9.50408C11.4834 9.50153 12.5107 9.07822 13.2678 8.32704C14.0248 7.57586 14.4499 6.55815 14.4496 5.49722C14.4496 4.43709 14.0241 3.42038 13.2666 2.67076C12.509 1.92113 11.4816 1.5 10.4104 1.5C9.33909 1.5 8.3117 1.92113 7.55419 2.67076C6.79668 3.42038 6.37112 4.43709 6.37112 5.49722C6.37112 6.55815 6.7964 7.57575 7.55366 8.32676C8.31091 9.07776 9.33829 9.50082 10.4104 9.50312M14.9702 18.5C15.313 18.4995 15.6489 18.4052 15.9408 18.2274C16.2327 18.0496 16.4692 17.7954 16.624 17.4928C16.7789 17.1902 16.8461 16.8511 16.8182 16.513C16.7902 16.1749 16.6683 15.8511 16.4658 15.5774C15.7566 14.6458 14.8435 13.8849 13.795 13.352C12.7465 12.819 11.5897 12.5277 10.4113 12.4998C9.23286 12.5278 8.07604 12.8193 7.02754 13.3524C5.97903 13.8855 5.066 14.6465 4.35685 15.5784C4.15508 15.8521 4.03369 16.1757 4.00606 16.5134C3.97843 16.8511 4.04565 17.1898 4.20029 17.492C4.35492 17.7943 4.59097 18.0484 4.88236 18.2263C5.17374 18.4042 5.50913 18.4989 5.8515 18.5H14.9702Z" stroke="#6D7194" stroke-width="1.5" stroke-linecap="round" stroke-linejoin="round"/>
</g>
<defs>
<clipPath id="clip0_1_183">
<rect width="20" height="20" fill="white"/>
</clipPath>
</defs>
</svg>
